<svg width="current" height="current" viewBox="0 0 24 24" fill="none" xmlns="http://www.w3.org/2000/svg">
<g clip-path="url(#clip0_9703_163336)">
<path d="M6 19C6 19.5304 6.21071 20.0391 6.58578 20.4142C6.96086 20.7893 7.46957 21 8 21H16C16.5304 21 17.0391 20.7893 17.4142 20.4142C17.7893 20.0391 18 19.5304 18 19V7H6V19ZM7 8H17V19C17 19.2652 16.8946 19.5196 16.7071 19.7071C16.5196 19.8946 16.2652 20 16 20H8C7.73478 20 7.48043 19.8946 7.29289 19.7071C7.10536 19.5196 7 19.2652 7 19V8Z" fill="current"/>
<path d="M14 5V4C14 3.73478 13.8946 3.48044 13.7071 3.29291C13.5196 3.10537 13.2652 3 13 3H11C10.7348 3 10.4804 3.10537 10.2929 3.29291C10.1054 3.48044 10 3.73478 10 4V5H6V6H18V5H14ZM11 5V4H13V5H11Z" fill="current"/>
<path d="M10 9.62988H9V18.3799H10V9.62988Z" fill="current"/>
<path d="M15 9.62988H14V18.3799H15V9.62988Z" fill="current"/>
<path d="M12.5 9.62988H11.5V18.3799H12.5V9.62988Z" fill="current"/>
</g>
<defs>
<clipPath id="clip0_9703_163336">
<rect width="12" height="18" fill="white" transform="translate(6 3)"/>
</clipPath>
</defs>
</svg>
