<svg width="24" height="24" viewBox="0 0 24 24" fill="none" xmlns="http://www.w3.org/2000/svg">
<g clip-path="url(#clip0_2_683)">
<path d="M18.4615 5.75383L18.2372 5.52947C18.0705 5.36259 17.8725 5.23021 17.6546 5.13988C17.4367 5.04955 17.2032 5.00305 16.9673 5.00305C16.7314 5.00305 16.4979 5.04955 16.28 5.13988C16.0621 5.23021 15.8641 5.36259 15.6974 5.52947L5.52948 15.7064C5.36151 15.8734 5.22825 16.0719 5.13738 16.2906C5.0465 16.5094 4.99981 16.7439 5 16.9808V19H7.01923C7.25608 19.0002 7.49061 18.9535 7.70933 18.8626C7.92805 18.7717 8.12661 18.6385 8.29359 18.4705L17.2051 9.55897L17.8333 8.93076L18.4705 8.29359C18.6368 8.1263 18.7685 7.92787 18.858 7.70966C18.9476 7.49144 18.9933 7.25772 18.9924 7.02184C18.9916 6.78597 18.9443 6.55257 18.8532 6.33499C18.7621 6.11742 18.629 5.91993 18.4615 5.75383ZM7.69231 17.8423C7.60845 17.9255 7.509 17.9913 7.39966 18.0359C7.29032 18.0806 7.17324 18.1032 7.05513 18.1026H5.89744V16.9808C5.89675 16.8626 5.91939 16.7456 5.96405 16.6362C6.00871 16.5269 6.07452 16.4274 6.15769 16.3436L15.0692 7.43203L16.5679 8.93076L7.69231 17.8423ZM17.8692 7.65639L17.241 8.29359L15.7423 6.79486L16.3795 6.16667C16.5476 5.99952 16.7751 5.90569 17.0122 5.90569C17.2493 5.90569 17.4767 5.99952 17.6449 6.16667L17.8692 6.39103C18.0317 6.56387 18.1191 6.79401 18.1124 7.03113C18.1057 7.26825 18.0053 7.49303 17.8333 7.65639H17.8692Z" fill="current"/>
<rect x="5" y="18" width="14" height="1" fill="current"/>
</g>
<defs>
<clipPath id="clip0_2_683">
<rect width="14" height="14" fill="white" transform="translate(5 5)"/>
</clipPath>
</defs>
</svg>
