<svg width="24" height="24" viewBox="0 0 24 24" fill="none" xmlns="http://www.w3.org/2000/svg">
<path d="M18 12H16V6C16 4.93913 15.5786 3.92172 14.8284 3.17157C14.0783 2.42142 13.0609 2 12 2C10.9391 2 9.92172 2.42142 9.17157 3.17157C8.42142 3.92172 8 4.93913 8 6V12H6C5.46957 12 4.96086 12.2107 4.58578 12.5858C4.21071 12.9609 4 13.4696 4 14V20C4 20.5304 4.21071 21.0391 4.58578 21.4142C4.96086 21.7893 5.46957 22 6 22H18C18.5304 22 19.0391 21.7893 19.4142 21.4142C19.7893 21.0391 20 20.5304 20 20V14C20 13.4696 19.7893 12.9609 19.4142 12.5858C19.0391 12.2107 18.5304 12 18 12ZM9 6C9 5.20435 9.31607 4.4413 9.87868 3.87869C10.4413 3.31608 11.2044 3 12 3C12.7956 3 13.5587 3.31608 14.1213 3.87869C14.6839 4.4413 15 5.20435 15 6V12H9V6ZM19 20C19 20.2652 18.8946 20.5196 18.7071 20.7071C18.5196 20.8946 18.2652 21 18 21H6C5.73478 21 5.48043 20.8946 5.29289 20.7071C5.10536 20.5196 5 20.2652 5 20V14C5 13.7348 5.10536 13.4804 5.29289 13.2929C5.48043 13.1054 5.73478 13 6 13H18C18.2652 13 18.5196 13.1054 18.7071 13.2929C18.8946 13.4804 19 13.7348 19 14V20Z" fill="current"/>
<path d="M12.5 16H11.5V18H12.5V16Z" fill="current"/>
</svg>
